<svg fill="#ffffff" xmlns="http://www.w3.org/2000/svg"  viewBox="0 0 50 50" width="114px" height="114px"><path d="M 25 2 C 20.77861 2 17.046034 4.1533015 14.841797 7.4179688 C 8.4884929 7.8572972 3.4394531 13.163277 3.4394531 19.625 C 3.4394531 21.553627 3.9015761 23.374253 4.7011719 25 C 3.9015761 26.625747 3.4394531 28.446373 3.4394531 30.375 C 3.4394531 36.836723 8.4884929 42.142703 14.841797 42.582031 C 17.046034 45.846698 20.77861 48 25 48 C 29.22139 48 32.953966 45.846698 35.158203 42.582031 C 41.511507 42.142703 46.560547 36.836723 46.560547 30.375 C 46.560547 28.446373 46.098424 26.625747 45.298828 25 C 46.098424 23.374253 46.560547 21.553627 46.560547 19.625 C 46.560547 13.163277 41.511507 7.8572972 35.158203 7.4179688 C 32.953966 4.1533015 29.22139 2 25 2 z M 25 5 C 27.563202 5 29.875176 6.0314253 31.546875 7.703125 C 28.954733 8.3056898 26.674681 9.7282099 25 11.689453 C 23.325319 9.7282099 21.045267 8.3056898 18.453125 7.703125 C 20.124824 6.0314253 22.436798 5 25 5 z M 16.582031 10.419922 C 18.787171 10.629035 20.761131 11.602928 22.236328 13.078125 C 19.83425 13.636508 17.703104 14.900845 16.070312 16.644531 C 15.867308 15.880247 15.75 15.080126 15.75 14.25 C 15.75 12.880112 16.052669 11.587044 16.582031 10.419922 z M 33.417969 10.419922 C 33.947331 11.587044 34.25 12.880112 34.25 14.25 C 34.25 15.080126 34.132692 15.880247 33.929688 16.644531 C 32.296896 14.900845 30.16575 13.636508 27.763672 13.078125 C 29.238869 11.602928 31.212829 10.629035 33.417969 10.419922 z M 13.28125 10.699219 C 12.939048 11.824184 12.75 13.015619 12.75 14.25 C 12.75 15.68442 13.012351 17.056925 13.46875 18.337891 C 10.845168 18.822378 8.5148309 20.145267 6.7597656 22.019531 C 6.5567607 21.255247 6.4394531 20.455126 6.4394531 19.625 C 6.4394531 15.333689 9.3327546 11.754512 13.28125 10.699219 z M 36.71875 10.699219 C 40.667245 11.754512 43.560547 15.333689 43.560547 19.625 C 43.560547 20.455126 43.443239 21.255247 43.240234 22.019531 C 41.485169 20.145267 39.154832 18.822378 36.53125 18.337891 C 36.987649 17.056925 37.25 15.68442 37.25 14.25 C 37.25 13.015619 37.060952 11.824184 36.71875 10.699219 z M 22.591797 16.074219 C 22.249594 17.199184 22.060547 18.390619 22.060547 19.625 C 22.060547 19.733062 22.073367 19.837906 22.076172 19.945312 C 20.970621 19.265185 19.752147 18.755093 18.453125 18.453125 C 19.580184 17.326065 21.001739 16.499185 22.591797 16.074219 z M 27.408203 16.074219 C 28.998261 16.499185 30.419816 17.326065 31.546875 18.453125 C 30.247853 18.755093 29.029379 19.265185 27.923828 19.945312 C 27.926633 19.837906 27.939453 19.733062 27.939453 19.625 C 27.939453 18.390619 27.750406 17.199184 27.408203 16.074219 z M 13.28125 21.449219 C 12.939048 22.574184 12.75 23.765619 12.75 25 C 12.75 26.234381 12.939048 27.425816 13.28125 28.550781 C 11.182573 27.989879 9.3856409 26.71738 8.1601562 25 C 9.3856409 23.28262 11.182573 22.010121 13.28125 21.449219 z M 36.71875 21.449219 C 38.817427 22.010121 40.614359 23.28262 41.839844 25 C 40.614359 26.71738 38.817427 27.989879 36.71875 28.550781 C 37.060952 27.425816 37.25 26.234381 37.25 25 C 37.25 23.765619 37.060952 22.574184 36.71875 21.449219 z M 16.070312 22.605469 C 16.959649 23.555207 17.989418 24.370209 19.138672 25 C 17.989418 25.629791 16.959649 26.444793 16.070312 27.394531 C 15.867308 26.630247 15.75 25.830126 15.75 25 C 15.75 24.169874 15.867308 23.369753 16.070312 22.605469 z M 33.929688 22.605469 C 34.132692 23.369753 34.25 24.169874 34.25 25 C 34.25 25.830126 34.132692 26.630247 33.929688 27.394531 C 33.040351 26.444793 32.010582 25.629791 30.861328 25 C 32.010582 24.370209 33.040351 23.555207 33.929688 22.605469 z M 6.7597656 27.980469 C 8.5148309 29.854733 10.845168 31.177622 13.46875 31.662109 C 13.012351 32.943075 12.75 34.31558 12.75 35.75 C 12.75 36.984381 12.939048 38.175816 13.28125 39.300781 C 9.3327546 38.245488 6.4394531 34.666311 6.4394531 30.375 C 6.4394531 29.544874 6.5567607 28.744753 6.7597656 27.980469 z M 43.240234 27.980469 C 43.443239 28.744753 43.560547 29.544874 43.560547 30.375 C 43.560547 34.666311 40.667245 38.245488 36.71875 39.300781 C 37.060952 38.175816 37.25 36.984381 37.25 35.75 C 37.25 34.31558 36.987649 32.943075 36.53125 31.662109 C 39.154832 31.177622 41.485169 29.854733 43.240234 27.980469 z M 22.076172 30.054688 C 22.073367 30.162094 22.060547 30.266938 22.060547 30.375 C 22.060547 31.609381 22.249594 32.800816 22.591797 33.925781 C 21.001739 33.500815 19.580184 32.673935 18.453125 31.546875 C 19.752147 31.244907 20.970621 30.734815 22.076172 30.054688 z M 27.923828 30.054688 C 29.029379 30.734815 30.247853 31.244907 31.546875 31.546875 C 30.419816 32.673935 28.998261 33.500815 27.408203 33.925781 C 27.750406 32.800816 27.939453 31.609381 27.939453 30.375 C 27.939453 30.266938 27.926633 30.162094 27.923828 30.054688 z M 16.070312 33.355469 C 17.703104 35.099155 19.83425 36.363492 22.236328 36.921875 C 20.761131 38.397072 18.787171 39.370965 16.582031 39.580078 C 16.052669 38.412956 15.75 37.119888 15.75 35.75 C 15.75 34.919874 15.867308 34.119753 16.070312 33.355469 z M 33.929688 33.355469 C 34.132692 34.119753 34.25 34.919874 34.25 35.75 C 34.25 37.119888 33.947331 38.412956 33.417969 39.580078 C 31.212829 39.370965 29.238869 38.397072 27.763672 36.921875 C 30.16575 36.363492 32.296896 35.099155 33.929688 33.355469 z M 25 38.310547 C 26.674681 40.27179 28.954733 41.69431 31.546875 42.296875 C 29.875176 43.968575 27.563202 45 25 45 C 22.436798 45 20.124824 43.968575 18.453125 42.296875 C 21.045267 41.69431 23.325319 40.27179 25 38.310547 z"/></svg>