<svg fill="#000000" xmlns="http://www.w3.org/2000/svg"  viewBox="0 0 64 64" width="1280px" height="1280px"><path d="M 28.970703 -0.080078125 C 27.310703 -0.080078125 25.949219 1.2794531 25.949219 2.9394531 C 25.949219 3.6194531 26.170547 4.2495313 26.560547 4.7695312 C 26.220547 5.3495313 26.010938 5.9996875 25.960938 6.6796875 C 24.990938 6.6096875 24.009922 6.8290625 23.169922 7.2890625 C 22.349922 6.0390625 20.899844 5.2603125 19.339844 5.3203125 C 18.789844 4.4903125 17.860078 3.9707031 16.830078 3.9707031 C 15.160078 3.9707031 13.800781 5.3302344 13.800781 6.9902344 C 13.800781 8.0302344 14.320156 8.9597656 15.160156 9.5097656 C 15.150156 9.5697656 15.150391 9.6294531 15.150391 9.6894531 C 15.150391 10.209453 15.239922 10.709687 15.419922 11.179688 C 14.299922 11.679688 13.410156 12.569688 12.910156 13.679688 C 11.700156 13.229687 10.299219 13.369297 9.1992188 14.029297 C 8.6792188 13.639297 8.0508594 13.419922 7.3808594 13.419922 C 5.7108594 13.419922 4.3496094 14.769453 4.3496094 16.439453 C 4.3496094 18.109453 5.7108594 19.460938 7.3808594 19.460938 L 7.390625 19.460938 C 7.580625 19.920937 7.8499219 20.339219 8.1699219 20.699219 C 7.4799219 21.549219 7.0807813 22.600703 7.0507812 23.720703 C 6.8507813 23.880703 6.6795313 24.06 6.5195312 24.25 C 6.3495313 24.23 6.1892969 24.210938 6.0292969 24.210938 C 4.3592969 24.210938 3 25.570234 3 27.240234 C 3 28.900234 4.3592969 30.259766 6.0292969 30.259766 C 6.4292969 30.259766 6.8292187 30.179531 7.1992188 30.019531 C 7.0992187 30.439531 7.0507812 30.859063 7.0507812 31.289062 C 7.0507812 32.659062 7.5301563 33.950234 8.4101562 34.990234 C 8.4101563 35.100234 8.4003906 35.220078 8.4003906 35.330078 C 8.4003906 35.490078 8.44 35.639531 8.5 35.769531 C 7.72 36.659531 7.2597656 37.809297 7.2597656 39.029297 L 7.2597656 39.130859 C 7.2597656 39.220859 7.2595313 39.300859 7.2695312 39.380859 C 7.2895313 39.820859 7.3692969 40.240391 7.5292969 40.650391 C 7.5392969 40.660391 7.5407813 40.679219 7.5507812 40.699219 C 7.609869 40.852847 7.6846855 41.001792 7.7675781 41.148438 C 8.2384582 42.114769 8.9795374 42.925057 9.9492188 43.429688 L 9.9492188 47.019531 C 9.9492188 57.169531 20.070625 64 35.140625 64 C 43.600625 64 46.069453 59.889922 46.689453 58.419922 C 48.589453 57.499922 49.240703 55.689062 49.470703 54.539062 C 49.610703 54.549062 49.750391 54.550781 49.900391 54.550781 C 55.870391 54.550781 59 52.01 59 49.5 C 59 47.67 57.430391 45.830859 56.150391 44.630859 C 56.250391 44.290859 56.300781 43.91 56.300781 43.5 C 56.300781 43.01 56.220078 42.6 56.080078 42.25 L 56.619141 42.25 C 57.929141 42.25 59 41.179141 59 39.869141 L 59 34.339844 C 59 33.029844 57.929141 31.960938 56.619141 31.960938 L 55.990234 31.960938 C 55.620234 30.870938 54.849688 29.549609 53.179688 28.849609 C 52.319688 27.939609 51.049297 26.060156 50.279297 24.660156 C 51.429297 24.240156 52.25 23.139844 52.25 21.839844 C 52.25 20.869844 51.790781 19.989453 51.050781 19.439453 C 51.410781 19.049453 51.700156 18.599141 51.910156 18.119141 L 51.919922 18.119141 C 53.589922 18.119141 54.949219 16.759844 54.949219 15.089844 C 54.949219 13.419844 53.589922 12.070312 51.919922 12.070312 C 51.249922 12.070312 50.619609 12.289687 50.099609 12.679688 C 49.359609 12.229688 48.499375 12.010078 47.609375 12.080078 C 47.079375 11.080078 46.250469 10.290078 45.230469 9.8300781 C 45.410469 9.3600781 45.5 8.8598437 45.5 8.3398438 L 45.5 8.1601562 C 46.33 7.6101563 46.849609 6.680625 46.849609 5.640625 C 46.849609 3.980625 45.490078 2.6191406 43.830078 2.6191406 C 42.790078 2.6191406 41.860547 3.1407031 41.310547 3.9707031 C 39.440547 3.8907031 37.740547 5.0307031 37.060547 6.7207031 C 36.610547 6.7807031 36.160703 6.909375 35.720703 7.109375 C 35.390703 6.959375 35.039453 6.8395313 34.689453 6.7695312 C 34.609453 5.0595313 33.54 3.5909375 32 2.9609375 L 32 2.9394531 C 32 1.2794531 30.640703 -0.080078125 28.970703 -0.080078125 z M 28.970703 1.9199219 C 29.540703 1.9199219 30 2.3794531 30 2.9394531 C 30 3.0594531 29.979688 3.1805469 29.929688 3.3105469 C 29.819688 3.5905469 29.840234 3.9099219 29.990234 4.1699219 C 30.140234 4.4299219 30.399219 4.6101563 30.699219 4.6601562 C 31.859219 4.8501562 32.699219 5.8302344 32.699219 6.9902344 C 32.699219 7.1502344 32.680391 7.3207031 32.650391 7.4707031 C 32.590391 7.7707031 32.669375 8.0705469 32.859375 8.3105469 C 33.049375 8.5405469 33.330859 8.6699219 33.630859 8.6699219 L 33.740234 8.6699219 C 34.250234 8.6799219 34.750703 8.8198437 35.220703 9.0898438 C 35.530703 9.2798437 35.920469 9.2698437 36.230469 9.0898438 C 36.700469 8.8198438 37.199219 8.6799219 37.699219 8.6699219 L 37.779297 8.6699219 C 38.289297 8.6999219 38.700781 8.3491406 38.800781 7.8691406 C 39.020781 6.7691406 39.999141 5.9707031 41.119141 5.9707031 C 41.289141 5.9707031 41.469922 5.9890625 41.669922 6.0390625 C 42.179922 6.1590625 42.699609 5.8596094 42.849609 5.3496094 C 42.979609 4.9096094 43.380078 4.6191406 43.830078 4.6191406 C 44.390078 4.6191406 44.849609 5.080625 44.849609 5.640625 C 44.849609 6.090625 44.549141 6.4791406 44.119141 6.6191406 C 43.609141 6.7691406 43.309688 7.2907813 43.429688 7.8007812 C 43.479687 8.0007812 43.5 8.1798437 43.5 8.3398438 C 43.5 9.0098437 43.210469 9.5105469 42.980469 9.8105469 C 42.750469 10.090547 42.700078 10.459063 42.830078 10.789062 C 42.960078 11.129063 43.259375 11.359922 43.609375 11.419922 C 44.759375 11.589922 45.689062 12.39 46.039062 13.5 C 46.199062 14.01 46.739766 14.300156 47.259766 14.160156 C 47.499766 14.100156 47.690859 14.070312 47.880859 14.070312 C 48.490859 14.070313 49.069531 14.300234 49.519531 14.740234 C 49.739531 14.940234 50.040078 15.049766 50.330078 15.009766 C 50.630078 14.969766 50.900547 14.800781 51.060547 14.550781 C 51.250547 14.250781 51.569922 14.070312 51.919922 14.070312 C 52.489922 14.070312 52.949219 14.529844 52.949219 15.089844 C 52.949219 15.769844 52.300781 16.329062 51.550781 16.039062 C 51.270781 15.929062 50.959219 15.959375 50.699219 16.109375 C 50.439219 16.259375 50.260937 16.520312 50.210938 16.820312 C 50.100938 17.490312 49.710625 18.079453 49.140625 18.439453 C 48.770625 18.669453 48.609219 19.1 48.699219 19.5 C 48.709219 19.55 48.720234 19.590625 48.740234 19.640625 C 48.790234 19.790625 48.829375 19.929844 48.859375 20.089844 C 48.899375 20.329844 49.019219 20.539922 49.199219 20.669922 C 49.299219 20.769922 49.409062 20.829141 49.539062 20.869141 C 49.959063 21.009141 50.25 21.399844 50.25 21.839844 C 50.25 22.279844 49.970312 22.659063 49.570312 22.789062 C 49.460312 22.839062 49.340703 22.859375 49.220703 22.859375 C 48.960703 22.859375 48.760859 22.759922 48.630859 22.669922 C 48.330859 22.449922 47.929609 22.419844 47.599609 22.589844 C 47.589609 22.599844 47.570547 22.599375 47.560547 22.609375 C 46.460547 23.149375 45.259609 22.779141 44.599609 21.869141 C 44.379609 21.559141 44.010859 21.400938 43.630859 21.460938 C 43.310859 21.510938 42.960625 21.510938 42.640625 21.460938 C 42.530625 21.440937 42.420547 21.440938 42.310547 21.460938 C 42.160547 21.480938 41.999844 21.509766 41.839844 21.509766 L 41.769531 21.509766 C 41.249531 21.469766 40.85 21.830547 40.75 22.310547 C 40.62 22.960547 40.199609 23.540859 39.599609 23.880859 C 39.359609 24.020859 39.190859 24.259297 39.130859 24.529297 C 39.060859 24.799297 39.119531 25.080547 39.269531 25.310547 C 39.389531 25.480547 39.449219 25.680625 39.449219 25.890625 C 39.449219 26.450625 38.989922 26.910156 38.419922 26.910156 C 37.859922 26.910156 37.400391 26.450625 37.400391 25.890625 C 37.400391 25.680625 37.460078 25.480547 37.580078 25.310547 C 37.730078 25.080547 37.790703 24.799297 37.720703 24.529297 C 37.660703 24.259297 37.49 24.020859 37.25 23.880859 C 36.5 23.450859 36.050781 22.689844 36.050781 21.839844 C 36.050781 21.679844 36.069609 21.519375 36.099609 21.359375 C 36.159609 21.049375 36.080859 20.739766 35.880859 20.509766 C 35.690859 20.279766 35.409141 20.160156 35.119141 20.160156 L 35.009766 20.160156 C 33.759766 20.140156 32.639219 19.350156 32.199219 18.160156 C 32.079219 17.840156 31.800937 17.599297 31.460938 17.529297 C 31.120938 17.459297 30.759297 17.570078 30.529297 17.830078 C 29.359297 19.090078 27.289609 19.099141 26.099609 17.869141 C 25.779609 17.529141 25.269141 17.470938 24.869141 17.710938 C 24.469141 17.950938 24.289687 18.430859 24.429688 18.880859 C 24.539688 19.220859 24.599609 19.530547 24.599609 19.810547 C 24.599609 21.500547 23.230781 22.859375 21.550781 22.859375 C 21.260781 22.859375 20.959375 22.809453 20.609375 22.689453 C 20.159375 22.549453 19.679453 22.730859 19.439453 23.130859 C 19.199453 23.530859 19.269375 24.039141 19.609375 24.369141 C 20.209375 24.949141 20.550781 25.730547 20.550781 26.560547 C 20.550781 27.360547 20.239687 28.109453 19.679688 28.689453 C 19.429688 28.939453 19.329687 29.310391 19.429688 29.650391 C 19.519687 29.990391 19.790859 30.259609 20.130859 30.349609 C 21.170859 30.629609 21.900391 31.570859 21.900391 32.630859 C 21.900391 33.250859 21.660469 33.829297 21.230469 34.279297 C 21.030469 34.489297 20.930937 34.749297 20.960938 35.029297 C 20.950937 35.049297 20.960938 35.069844 20.960938 35.089844 C 20.990938 35.389844 21.159922 35.660313 21.419922 35.820312 C 21.719922 36.010312 21.900391 36.329687 21.900391 36.679688 C 21.900391 36.829687 21.870547 36.969609 21.810547 37.099609 C 21.650547 37.459609 21.290859 37.710938 20.880859 37.710938 C 20.460859 37.710938 20.099453 37.459609 19.939453 37.099609 C 19.879453 36.969609 19.849609 36.829687 19.849609 36.679688 C 19.849609 36.559688 19.869922 36.440547 19.919922 36.310547 C 20.029922 36.030547 20.009375 35.720937 19.859375 35.460938 C 19.749375 35.260938 19.569141 35.109297 19.369141 35.029297 C 19.299141 34.999297 19.220391 34.980703 19.150391 34.970703 C 18.540391 34.870703 18.010625 34.550547 17.640625 34.060547 C 17.450625 33.810547 17.149844 33.660156 16.839844 33.660156 L 16.080078 33.660156 C 15.780078 33.660156 15.500547 33.789297 15.310547 34.029297 C 15.120547 34.259297 15.039609 34.559375 15.099609 34.859375 C 15.109609 34.919375 15.120859 34.969297 15.130859 35.029297 C 15.140859 35.129297 15.150391 35.230078 15.150391 35.330078 C 15.150391 35.820078 14.940391 36.260859 14.650391 36.630859 C 14.070391 35.960859 13.309453 35.48 12.439453 35.25 C 12.279453 35.21 12.109219 35.170391 11.949219 35.150391 C 11.429219 35.080391 10.900156 35.090938 10.410156 35.210938 C 10.410156 35.090938 10.429219 34.969609 10.449219 34.849609 C 10.519219 34.519609 10.409922 34.179453 10.169922 33.939453 C 10.089922 33.859453 10.009219 33.779453 9.9492188 33.689453 C 9.3692188 33.019453 9.0507812 32.179063 9.0507812 31.289062 C 9.0507812 30.709062 9.2004688 30.139844 9.4804688 29.589844 C 9.6204687 29.329844 9.6295312 29.020234 9.5195312 28.740234 C 9.4095313 28.470234 9.1803906 28.259922 8.9003906 28.169922 C 8.6403906 28.089922 8.42 27.960781 8.25 27.800781 C 8.05 27.620781 7.7597656 27.519063 7.5097656 27.539062 C 7.2297656 27.549063 6.9807812 27.680625 6.8007812 27.890625 C 6.6907812 28.030625 6.4292969 28.259766 6.0292969 28.259766 C 5.4592969 28.259766 5 27.800234 5 27.240234 C 5 26.520234 5.7602344 25.960078 6.4902344 26.330078 C 6.7302344 26.460078 7.0192969 26.480625 7.2792969 26.390625 C 7.5292969 26.300625 7.739375 26.109375 7.859375 25.859375 C 8.009375 25.539375 8.2500781 25.269844 8.5800781 25.089844 C 8.9200781 24.899844 9.1200781 24.520859 9.0800781 24.130859 L 9.0507812 23.859375 C 9.0507812 22.989375 9.4298437 22.169844 10.089844 21.589844 C 10.139844 21.539844 10.199766 21.489219 10.259766 21.449219 C 10.529766 21.249219 10.670156 20.929609 10.660156 20.599609 C 10.650156 20.439609 10.599531 20.290391 10.519531 20.150391 C 10.439531 20.010391 10.319688 19.890781 10.179688 19.800781 C 9.5996875 19.440781 9.1998437 18.839922 9.0898438 18.169922 C 9.0398437 17.869922 8.8596094 17.610937 8.5996094 17.460938 C 8.3396094 17.310938 8.03 17.280625 7.75 17.390625 C 7 17.680625 6.3496094 17.119453 6.3496094 16.439453 C 6.3496094 15.879453 6.8108594 15.419922 7.3808594 15.419922 C 7.7308594 15.419922 8.0502344 15.600391 8.2402344 15.900391 C 8.4002344 16.150391 8.6709375 16.319375 8.9609375 16.359375 C 9.2609375 16.389375 9.5592969 16.289844 9.7792969 16.089844 C 10.229297 15.649844 10.809922 15.419922 11.419922 15.419922 C 12.089922 15.419922 12.590625 15.699453 12.890625 15.939453 C 13.170625 16.159453 13.550859 16.219844 13.880859 16.089844 C 14.210859 15.959844 14.45 15.660547 14.5 15.310547 C 14.7 13.990547 15.719062 12.969531 17.039062 12.769531 C 17.389063 12.709531 17.690313 12.480625 17.820312 12.140625 C 17.950312 11.810625 17.899922 11.440156 17.669922 11.160156 C 17.439922 10.860156 17.150391 10.359453 17.150391 9.6894531 C 17.150391 9.5294531 17.170703 9.3503906 17.220703 9.1503906 C 17.340703 8.6403906 17.039297 8.1207031 16.529297 7.9707031 C 16.089297 7.8307031 15.800781 7.4402344 15.800781 6.9902344 C 15.800781 6.4302344 16.260078 5.9707031 16.830078 5.9707031 C 17.280078 5.9707031 17.670781 6.2592187 17.800781 6.6992188 C 17.950781 7.2092187 18.470469 7.510625 18.980469 7.390625 C 19.180469 7.340625 19.359297 7.3203125 19.529297 7.3203125 C 20.589297 7.3203125 21.530547 8.0400781 21.810547 9.0800781 C 21.900547 9.4200781 22.169766 9.6890625 22.509766 9.7890625 C 22.849766 9.8790625 23.220703 9.7890625 23.470703 9.5390625 C 24.320703 8.7090625 25.590234 8.430625 26.740234 8.890625 C 27.090234 9.040625 27.499063 8.9592188 27.789062 8.6992188 C 28.069063 8.4392187 28.180312 8.0399219 28.070312 7.6699219 C 27.990312 7.4099219 27.949219 7.2002344 27.949219 6.9902344 C 27.949219 6.3802344 28.189141 5.7996094 28.619141 5.3496094 C 28.829141 5.1296094 28.930625 4.8292969 28.890625 4.5292969 C 28.860625 4.2392969 28.689688 3.9705469 28.429688 3.8105469 C 28.129687 3.6205469 27.949219 3.2894531 27.949219 2.9394531 C 27.949219 2.3794531 28.410703 1.9199219 28.970703 1.9199219 z M 30.960938 20.050781 C 31.700937 21.080781 32.810547 21.810547 34.060547 22.060547 C 34.120547 23.220547 34.649766 24.310078 35.509766 25.080078 C 35.439766 25.340078 35.400391 25.610625 35.400391 25.890625 C 35.400391 27.550625 36.759922 28.910156 38.419922 28.910156 C 40.089922 28.910156 41.449219 27.550625 41.449219 25.890625 C 41.449219 25.610625 41.409844 25.340078 41.339844 25.080078 C 41.839844 24.630078 42.240234 24.080938 42.490234 23.460938 C 42.750234 23.500937 43.059141 23.519766 43.369141 23.509766 C 44.529141 24.719766 46.370234 25.199609 47.990234 24.599609 C 48.000234 24.609609 48.019297 24.609141 48.029297 24.619141 C 48.929297 26.669141 50.980156 29.490156 51.910156 30.410156 C 52.010156 30.510156 52.129766 30.590625 52.259766 30.640625 C 53.029766 30.930625 53.510781 31.440938 53.800781 31.960938 L 46.949219 31.960938 C 45.629219 31.960938 44.570312 33.029844 44.570312 34.339844 L 44.570312 35.029297 L 42.419922 35.029297 L 42.419922 34.339844 C 42.419922 33.029844 41.370312 31.960938 40.070312 31.960938 L 29.300781 31.960938 C 28.000781 31.960938 26.949219 33.029844 26.949219 34.339844 L 26.949219 35.029297 L 23.410156 35.029297 C 23.370156 34.969297 23.329062 34.919375 23.289062 34.859375 C 23.689062 34.189375 23.900391 33.430859 23.900391 32.630859 C 23.900391 31.140859 23.129922 29.780234 21.919922 28.990234 C 22.329922 28.250234 22.550781 27.420547 22.550781 26.560547 C 22.550781 25.960547 22.440234 25.370313 22.240234 24.820312 C 24.470234 24.510313 26.250781 22.74 26.550781 20.5 C 27.980781 21.03 29.670938 20.860781 30.960938 20.050781 z M 29.300781 33.960938 L 40.070312 33.960938 C 40.260312 33.960938 40.419922 34.129844 40.419922 34.339844 L 40.419922 39.869141 C 40.419922 40.079141 40.260312 40.25 40.070312 40.25 L 29.300781 40.25 C 29.110781 40.25 28.949219 40.079141 28.949219 39.869141 L 28.949219 34.339844 C 28.949219 34.129844 29.110781 33.960937 29.300781 33.960938 z M 46.949219 33.960938 L 56.619141 33.960938 C 56.829141 33.960938 57 34.129844 57 34.339844 L 57 39.869141 C 57 40.079141 56.829141 40.25 56.619141 40.25 L 54.050781 40.25 C 53.990781 40.22 53.940859 40.190391 53.880859 40.150391 C 53.360859 39.860391 52.830391 39.559141 52.400391 39.119141 C 52.370391 39.099141 52.340547 39.069063 52.310547 39.039062 C 51.720547 38.419063 49.589219 36.590391 47.199219 35.650391 C 46.989219 35.560391 46.780313 35.489922 46.570312 35.419922 L 46.570312 34.339844 C 46.570312 34.129844 46.739219 33.960938 46.949219 33.960938 z M 36.757812 35.03125 A 1.554 1.554 0 0 0 36.757812 38.138672 A 1.554 1.554 0 0 0 36.757812 35.03125 z M 53.337891 35.03125 A 1.554 1.554 0 0 0 53.337891 38.138672 A 1.554 1.554 0 0 0 53.337891 35.03125 z M 17.039062 36.220703 C 17.289062 36.400703 17.569609 36.549922 17.849609 36.669922 L 17.849609 36.679688 C 17.849609 36.819688 17.860859 36.959609 17.880859 37.099609 C 18.080859 38.569609 19.350859 39.710938 20.880859 39.710938 C 22.400859 39.710938 23.669141 38.569609 23.869141 37.099609 L 26.949219 37.099609 L 26.949219 39.869141 C 26.949219 41.179141 28.000781 42.25 29.300781 42.25 L 40.070312 42.25 C 41.370312 42.25 42.419922 41.179141 42.419922 39.869141 L 42.419922 37.099609 L 44.929688 37.099609 C 45.449688 37.149609 46.010312 37.310781 46.570312 37.550781 C 48.200312 38.220781 49.849453 39.44 50.689453 40.25 C 50.759453 40.32 50.819141 40.369687 50.869141 40.429688 C 51.139141 40.709688 51.420938 40.950391 51.710938 41.150391 C 52.110937 41.440391 52.510859 41.670625 52.880859 41.890625 C 53.110859 42.020625 53.300938 42.130469 53.460938 42.230469 C 53.470937 42.240469 53.480234 42.24 53.490234 42.25 C 53.960234 42.55 54.189531 42.789922 54.269531 43.169922 C 54.289531 43.269922 54.300781 43.38 54.300781 43.5 C 54.300781 44.09 54.159766 44.650312 53.259766 44.820312 C 53.069766 44.860312 52.859609 44.880859 52.599609 44.880859 L 52.560547 44.880859 C 51.570547 44.900859 51.009609 45.440078 50.599609 45.830078 C 50.379609 46.040078 50.200938 46.210313 49.960938 46.320312 C 49.770938 46.410313 49.540703 46.460938 49.220703 46.460938 C 48.510703 46.460938 48.249609 46.210078 47.849609 45.830078 C 47.429609 45.430078 46.859609 44.880859 45.849609 44.880859 L 43.830078 44.880859 C 43.010078 44.880859 42.820781 44.539062 42.800781 44.289062 C 42.800781 43.739062 42.350781 43.289062 41.800781 43.289062 C 41.250781 43.289062 40.800781 43.739063 40.800781 44.289062 C 40.800781 45.329063 41.610078 46.880859 43.830078 46.880859 L 45.849609 46.880859 C 46.029609 46.880859 46.110703 46.929531 46.470703 47.269531 C 46.960703 47.749531 47.710703 48.460938 49.220703 48.460938 L 49.240234 48.460938 C 50.440234 48.450937 51.150625 48.010078 51.640625 47.580078 C 51.770625 47.480078 51.880469 47.369531 51.980469 47.269531 C 52.340469 46.929531 52.419609 46.880859 52.599609 46.880859 C 53.559609 46.880859 54.350938 46.659766 54.960938 46.259766 C 56.030937 47.299766 57 48.55 57 49.5 C 57 50.72 54.760937 52.530781 49.960938 52.550781 L 49.900391 52.550781 C 49.150391 52.550781 48.509219 52.429766 47.949219 52.259766 C 47.479219 52.119766 47.060156 51.939297 46.660156 51.779297 C 45.940156 51.479297 45.26 51.199219 44.5 51.199219 C 43.11 51.199219 42.009219 51.560156 40.949219 51.910156 C 39.929219 52.240156 38.97 52.550781 37.75 52.550781 C 36.73 52.550781 36.219766 52.340781 35.509766 52.050781 C 34.579766 51.670781 33.43 51.199219 31 51.199219 C 30.45 51.199219 30 51.649219 30 52.199219 C 30 52.759219 30.45 53.199219 31 53.199219 C 33.03 53.199219 33.91 53.560156 34.75 53.910156 C 35.53 54.220156 36.34 54.550781 37.75 54.550781 C 39.28 54.550781 40.500312 54.160547 41.570312 53.810547 C 42.530313 53.500547 43.43 53.199219 44.5 53.199219 C 44.86 53.199219 45.340625 53.400859 45.890625 53.630859 C 46.340625 53.820859 46.87 54.040937 47.5 54.210938 C 47.34 55.000937 46.879062 56.240234 45.539062 56.740234 C 45.239063 56.850234 45.009688 57.109922 44.929688 57.419922 C 44.869687 57.599922 43.560625 62 35.140625 62 C 21.270625 62 11.949219 55.979531 11.949219 47.019531 L 11.949219 42.779297 C 11.949219 42.349297 11.679297 41.970078 11.279297 41.830078 C 10.619297 41.600078 10.080234 41.159375 9.7402344 40.609375 C 9.7202344 40.519375 9.6791406 40.419844 9.6191406 40.339844 C 9.5591406 40.259844 9.5207031 40.179844 9.4707031 40.089844 L 9.4101562 39.939453 C 9.3201563 39.659453 9.2697656 39.380078 9.2597656 39.080078 C 9.2597656 39.040078 9.2695312 39.010703 9.2695312 38.970703 C 9.2795312 38.900703 9.2807813 38.829766 9.3007812 38.759766 C 9.4107813 38.209766 9.7292187 37.729922 10.199219 37.419922 C 10.669219 37.109922 11.309922 37.019453 11.919922 37.189453 C 12.629922 37.379453 13.220313 37.870312 13.570312 38.570312 C 13.570313 38.580312 13.580078 38.579844 13.580078 38.589844 C 13.610078 38.639844 13.629687 38.690469 13.679688 38.730469 C 13.709688 38.780469 13.750781 38.829141 13.800781 38.869141 C 13.810781 38.889141 13.829609 38.900156 13.849609 38.910156 C 13.899609 38.960156 13.959531 38.989531 14.019531 39.019531 C 14.159531 39.099531 14.320234 39.140625 14.490234 39.140625 C 14.560234 39.140625 14.629219 39.129375 14.699219 39.109375 C 14.779219 39.089375 14.859687 39.059297 14.929688 39.029297 C 14.969687 39.019297 14.999063 39.000703 15.039062 38.970703 C 15.779063 38.470703 16.350938 37.819609 16.710938 37.099609 C 16.860937 36.819609 16.969062 36.520703 17.039062 36.220703 z M 17.886719 49.759766 C 17.758344 49.780703 17.630922 49.826891 17.513672 49.900391 L 15.822266 50.966797 C 15.356266 51.260797 15.214766 51.877703 15.509766 52.345703 C 15.699766 52.647703 16.025422 52.8125 16.357422 52.8125 C 16.540422 52.8125 16.723672 52.76125 16.888672 52.65625 L 18.580078 51.591797 C 19.046078 51.297797 19.187578 50.680891 18.892578 50.212891 C 18.672828 49.863391 18.271844 49.696953 17.886719 49.759766 z M 21.9375 53.148438 C 21.550125 53.104422 21.155172 53.290391 20.951172 53.650391 L 19.96875 55.392578 C 19.69775 55.873578 19.867656 56.484859 20.347656 56.755859 C 20.503656 56.843859 20.672844 56.884766 20.839844 56.884766 C 21.187844 56.884766 21.525938 56.701953 21.710938 56.376953 L 22.693359 54.634766 C 22.964359 54.153766 22.794453 53.542484 22.314453 53.271484 C 22.193953 53.203734 22.066625 53.163109 21.9375 53.148438 z M 26.654297 55.068359 C 26.269078 55.128219 25.939594 55.414406 25.839844 55.816406 L 25.355469 57.755859 C 25.221469 58.290859 25.546031 58.83475 26.082031 58.96875 C 26.163031 58.98875 26.246172 58.998047 26.326172 58.998047 C 26.774172 58.998047 27.181922 58.695234 27.294922 58.240234 L 27.779297 56.300781 C 27.913297 55.765781 27.588734 55.221891 27.052734 55.087891 C 26.918484 55.053641 26.782703 55.048406 26.654297 55.068359 z"/></svg>