<?xml version='1.0' encoding='utf-8'?>
<svg xmlns="http://www.w3.org/2000/svg" version="1.1" width="600px" height="976px" viewBox="0 0 600 976"> <g id="layer1"> <g style="fill:rgb(255,255,255); fill-opacity:1.0; stroke-linejoin: miter"> <path d="M214.36113,548.6963L223.8679,539.9585L279.30414,541.8396L280.90332,550.1045L220.33022,676.57324L181.12814,676.2587L214.36113,548.6963"/> </g> <g style="fill:rgb(0,0,0); fill-opacity:1.0; stroke-linejoin: miter"> <path d="M148.42482,673.8893L149.49324,664.4863Q155.36632,611.987,159.15208,590.2023Q161.86034,575.6371,162.40915,574.4455Q164.59015,566.25323,166.78992,562.57385Q169.53792,557.567,174.51646,556.2766L217.66551,546.33014L190.40645,675.30743L148.42482,673.8893"/> </g> <g style="fill:rgb(0,0,0); fill-opacity:1.0; stroke-linejoin: miter"> <path d="M350.7047,682.67114L352.13528,602.42004L292.86148,562.1677L279.9565,543.6036Q247.85411,601.6912,238.0505,623.2921Q227.13206,646.2211,217.79048,677.19293L350.7047,682.67114"/> </g> <g style="fill:rgb(250,187,155); fill-opacity:1.0; stroke-linejoin: miter"> <path d="M218.47469,612.20575L219.0231,575.9335L217.63106,571.8863L222.29343,549.0861L223.15123,534.39453Q217.72237,522.2717,218.0672,515.9684Q217.86617,509.70822,223.58263,496.7041Q221.8257,495.80795,222.50816,493.18896Q223.83945,487.59213,229.45001,477.2967Q232.12688,472.42398,233.66052,475.27112Q239.53203,460.4613,246.16655,453.20236Q254.10402,444.70764,266.12332,442.22363Q279.55634,440.0521,287.13995,443.9624Q293.25635,447.24692,294.57422,448.93298Q299.43512,453.51114,302.707,459.6649Q303.79166,461.1145,306.6352,469.04706Q308.61026,475.49646,308.73,481.18857Q308.78372,493.70117,300.6246,506.96585Q305.82333,506.61166,304.58633,511.0644Q303.70557,514.97504,298.51776,522.99097Q293.55862,530.9293,288.58768,527.4987L279.62698,542.9742L233.16249,574.63873L218.47469,612.20575"/> </g> <g style="fill:rgb(255,255,255); fill-opacity:1.0; stroke-linejoin: miter"> <path d="M235.58388,501.8179L235.73967,503.1117Q236.48933,510.2901,238.55745,513.92737Q240.98022,517.99646,245.23842,519.9814Q250.83632,522.5821,255.82333,522.0016Q258.1542,521.7372,260.33447,521.0001Q263.59314,519.8574,266.7247,518.31604L235.58388,501.8179"/> </g> <g style="fill:rgb(255,0,0); fill-opacity:0.18039216; stroke-linejoin: miter"> <path d="M245.53673,491.74408L252.64815,500.02548L264.37018,499.49966L253.75716,497.68393L245.53673,491.74408"/> </g> <g style="fill:rgb(255,255,255); fill-opacity:1.0; stroke-linejoin: miter"> <path d="M281.16483,492.80756L280.843,493.15646Q279.75616,494.12054,278.26062,494.02994Q276.75882,493.9335,275.54538,492.7656Q274.43192,491.59464,274.36215,490.13794Q274.34174,489.66876,274.4458,489.21698L274.58203,488.77567Q274.7499,488.3418,275.04865,487.96222Q276.00192,486.82626,277.47604,486.7383Q278.95016,486.6504,280.27292,487.65054Q281.5492,488.7093,281.80084,490.16446Q282.05252,491.61966,281.16483,492.80756"/> </g> <g style="fill:rgb(0,0,0); fill-opacity:1.0; stroke-linejoin: miter"> <path d="M280.2228,491.73572L279.96115,492.1493Q279.0876,493.35205,277.95065,493.72507Q276.80923,494.0947,275.93716,493.40723Q275.1415,492.68658,275.15533,491.38995Q275.16138,490.9717,275.26157,490.53134L275.38583,490.0907Q275.5339,489.64713,275.7793,489.21283Q276.55893,487.89517,277.6877,487.36716Q278.8165,486.83914,279.7797,487.34155Q280.7047,487.91116,280.82974,489.1511Q280.9548,490.391,280.2228,491.73572"/> </g> <g style="fill:rgb(0,0,0); fill-opacity:1.0; stroke-linejoin: miter"> <path d="M272.30673,481.21872L277.22412,482.11444L282.14148,483.01016L286.48428,488.12762L272.30673,481.21872"/> </g> <g style="fill:rgb(255,255,255); fill-opacity:1.0; stroke-linejoin: miter"> <path d="M243.60338,474.2979L243.523,474.77103Q243.42287,476.23624,244.41925,477.37704Q245.42415,478.5193,247.10832,478.7688Q248.73317,478.93646,249.94196,478.09244Q250.33,477.8189,250.62729,477.45657L250.89626,477.07495Q251.13974,476.67258,251.25893,476.19907Q251.57907,474.73447,250.73883,473.50055Q249.89853,472.26657,248.28108,471.82596Q246.64546,471.45868,245.32555,472.15622Q244.0056,472.8537,243.60338,474.2979"/> </g> <g style="fill:rgb(0,0,0); fill-opacity:1.0; stroke-linejoin: miter"> <path d="M245.04298,474.3896L244.87367,474.85452Q244.45087,476.2965,244.85469,477.43677Q245.26402,478.5785,246.35286,478.85165Q247.42104,479.04318,248.45006,478.2312Q248.78104,477.968,249.07153,477.6157L249.3474,477.24408Q249.61095,476.8516,249.80684,476.38687Q250.37962,474.94907,250.10487,473.71967Q249.83012,472.4902,248.83307,472.0298Q247.80577,471.64142,246.73637,472.3073Q245.66696,472.9732,245.04298,474.3896"/> </g> <g style="fill:rgb(0,0,0); fill-opacity:1.0; stroke-linejoin: miter"> <path d="M258.349,474.22745L254.59459,470.8458L250.84016,467.4641L244.06233,467.15018L258.349,474.22745"/> </g> <g style="fill:rgb(255,0,0); fill-opacity:0.06666667; stroke-linejoin: miter"> <path d="M223.15694,535.218L224.2617,536.6568Q229.55298,543.985,234.94685,547.1626Q239.23668,549.5848,245.41626,549.09534Q252.1102,548.64185,262.38583,544.08765Q269.85825,540.7065,282.27737,532.81464L217.45012,574.14154L223.15694,535.218"/> </g> <g style="fill:rgb(0,0,0); fill-opacity:0.050980393; stroke-linejoin: miter"> <path d="M210.86438,561.7974L210.51698,571.7063L210.16959,581.6152L218.98607,577.0085L210.86438,561.7974 Z M241.04474,570.9256L238.71889,587.0779L257.57346,585.3819L249.3091,578.1536L241.04474,570.9256 Z"/> </g> </g> </svg>